<?xml version="1.0" encoding="UTF-8" standalone="no"?>
<!DOCTYPE svg PUBLIC "-//W3C//DTD SVG 1.1//EN" "http://www.w3.org/Graphics/SVG/1.1/DTD/svg11.dtd">
<svg width="100%" height="100%" viewBox="0 0 653 562" version="1.1" xmlns="http://www.w3.org/2000/svg" xmlns:xlink="http://www.w3.org/1999/xlink" xml:space="preserve" xmlns:serif="http://www.serif.com/" style="fill-rule:evenodd;clip-rule:evenodd;stroke-linejoin:round;stroke-miterlimit:2;">
    <g transform="matrix(1,0,0,1,-2027.82,-146.85)">
        <g transform="matrix(1,0,0,1,-0.302668,0)">
            <g transform="matrix(2.08851,0,0,2.08851,-387.917,-348.81)">
                <path d="M1469.18,335.564C1469.18,318.916 1457.92,304.378 1441.8,300.22C1388.06,286.361 1268.32,255.475 1202.44,238.484C1191.51,235.665 1179.89,238.061 1170.97,244.974C1162.05,251.887 1156.82,262.54 1156.82,273.827C1156.82,315.015 1156.82,373.463 1156.82,407.812C1156.82,424.46 1168.09,438.998 1184.21,443.156C1237.94,457.016 1357.69,487.901 1423.57,504.893C1434.5,507.712 1446.12,505.315 1455.04,498.402C1463.96,491.489 1469.18,480.837 1469.18,469.549C1469.18,428.361 1469.18,369.913 1469.18,335.564ZM1425.68,262.221C1427.8,262.221 1429.84,263.064 1431.34,264.564C1432.84,266.065 1433.68,268.1 1433.68,270.221C1433.68,294.659 1433.68,368.152 1433.68,392.589C1433.68,394.711 1432.84,396.746 1431.34,398.246C1429.84,399.747 1427.8,400.589 1425.68,400.589C1388.99,400.589 1237.02,400.589 1200.33,400.589C1198.2,400.589 1196.17,399.747 1194.67,398.246C1193.17,396.746 1192.33,394.711 1192.33,392.589C1192.33,368.152 1192.33,294.659 1192.33,270.221C1192.33,268.1 1193.17,266.065 1194.67,264.564C1196.17,263.064 1198.2,262.221 1200.33,262.221C1237.02,262.221 1388.99,262.221 1425.68,262.221Z" style="fill:rgb(107,118,255);"/>
            </g>
        </g>
    </g>
</svg>
